# xmcd
#
# Track frame offsets:
# 150
# 28895
# 49608
# 80875
# 105977
# 119021
# 141671
# 160357
# 178353
#
# Disc length: 2637 seconds
#
#
# Revision: 0
# Processed by: cddbd v1.5.2PL0 Copyright (c) Steve Scherf et al.
# Submitted via: FreeRIP 2.945 
#
DISCID=870a4b09
DTITLE=Sade - Promise
DYEAR=1900
DGENRE=Jazz
TTITLE0=Is It A Crime
TTITLE1=The Sweetest Taboo
TTITLE2=War Of The Hearts
TTITLE3=Jezebel
TTITLE4=Mr Wrong
TTITLE5=Never As Good As The First Time
TTITLE6=Fear
TTITLE7=Tar Baby
TTITLE8=Maureen
EXTD=
EXTT0=
EXTT1=
EXTT2=
EXTT3=
EXTT4=
EXTT5=
EXTT6=
EXTT7=
EXTT8=
PLAYORDER=
